Coordinates
version=1
nRows=13
nColumns=40
inDegrees=yes

Units are S.I. units (second, meters, Newtons, ...)
Angles are in degrees.

endheader
time	pelvis_tilt	pelvis_list	pelvis_rotation	pelvis_tx	pelvis_ty	pelvis_tz	hip_flexion_r	hip_adduction_r	hip_rotation_r	knee_angle_r	knee_angle_r_beta	ankle_angle_r	subtalar_angle_r	mtp_angle_r	hip_flexion_l	hip_adduction_l	hip_rotation_l	knee_angle_l	knee_angle_l_beta	ankle_angle_l	subtalar_angle_l	mtp_angle_l	lumbar_extension	lumbar_bending	lumbar_rotation	arm_flex_r	arm_add_r	arm_rot_r	elbow_flex_r	pro_sup_r	wrist_flex_r	wrist_dev_r	arm_flex_l	arm_add_l	arm_rot_l	elbow_flex_l	pro_sup_l	wrist_flex_l	wrist_dev_l
      2.17500000	     -4.28381456	     -6.05054159	     -0.44728003	      0.94466986	      0.92352625	      0.49731421	     19.71571187	      2.06104488	    -15.17824378	     18.69710341	     18.69710341	      4.39234504	     -5.32221949	     -4.43126857	     10.06824291	    -11.72254934	     -5.42273668	     45.84101797	     45.84101797	      9.82615307	    -16.89346337	     -8.49908458	     -8.32045895	      7.75766979	      3.47146050	      0.96219218	    -11.80684020	     -7.17696243	     25.80117123	     46.25027436	      0.00000000	      0.00000000	     11.08968459	    -11.68993728	     -6.17484756	     72.09400415	     47.18685102	      0.00000000	      0.00000000
      2.18685714	     -4.24060763	     -6.31314222	     -0.09993165	      0.94423442	      0.92407448	      0.49916930	     18.96143184	      2.42256615	    -15.67302817	     18.27367812	     18.27367812	      4.75339538	     -4.94297916	     -4.59067419	     12.32209420	    -12.42301205	     -4.45391651	     49.92581047	     49.92581047	      7.73556017	    -17.57717516	     -8.01809369	     -8.37105532	      7.93511633	      3.35536800	      2.75573609	    -11.93908296	     -7.10748987	     26.87503620	     46.21560445	      0.00000000	      0.00000000	     10.15823511	    -11.26724550	     -5.91556018	     70.32140468	     47.13709992	      0.00000000	      0.00000000
      2.19871429	     -4.26949207	     -6.38730489	      0.25905265	      0.94359944	      0.92455313	      0.50064864	     18.28440428	      2.49606404	    -16.42871840	     17.84160500	     17.84160500	      5.01087454	     -4.02078207	     -5.20824800	     14.80608604	    -12.65841498	     -3.21456465	     54.06944189	     54.06944189	      7.26892669	    -17.60749918	     -3.22972021	     -8.22161329	      7.97317279	      3.75880910	      3.63244380	    -12.39902240	     -6.07883182	     29.37860836	     46.04449278	      0.00000000	      0.00000000	     10.72246453	    -10.19698700	     -6.03451184	     64.79655094	     47.08235349	      0.00000000	      0.00000000
      2.21057143	     -4.24402222	     -6.59942864	      0.59498636	      0.94279094	      0.92494862	      0.50228696	     17.58804060	      2.80290260	    -16.89191435	     17.43378344	     17.43378344	      5.31806388	     -3.59699104	     -5.39742963	     17.11923288	    -13.09515048	     -2.16224769	     57.65054347	     57.65054347	      6.00049301	    -17.76861965	     -1.10482973	     -8.27740751	      8.09750948	      3.42817979	      5.42266846	    -12.58803684	     -5.69900561	     31.19805046	     45.95915875	      0.00000000	      0.00000000	      9.82723712	    -10.04712487	     -5.60571973	     62.43438169	     47.01472380	      0.00000000	      0.00000000
      2.22242857	     -4.22892080	     -6.83328839	      0.83997202	      0.94178887	      0.92522782	      0.50395548	     16.97163479	      3.15393141	    -17.27815892	     17.11249349	     17.11249349	      5.56171048	     -3.31629543	     -5.48173801	     19.32924081	    -13.53212379	     -1.25552837	     60.72788173	     60.72788173	      4.56788150	    -18.05004975	     -0.32931123	     -8.38568500	      8.13872950	      3.69071155	      7.25642523	    -12.91174381	     -5.63836975	     32.23317433	     45.92787912	      0.00000000	      0.00000000	      8.94757923	     -9.51674958	     -5.32459716	     61.08995403	     46.96799892	      0.00000000	      0.00000000
      2.23428571	     -4.32844481	     -6.87546844	      1.14104693	      0.94060791	      0.92556252	      0.50519555	     16.44218186	      3.20651559	    -17.96748879	     16.74659180	     16.74659180	      5.82228514	     -2.40481360	     -5.83226596	     21.76318791	    -13.48347193	     -0.15487098	     63.65010517	     63.65010517	      5.22990345	    -17.70394358	      5.38625676	     -8.25056331	      8.10430914	      4.13613903	      8.25979979	    -13.53067475	     -4.43581485	     35.00175324	     45.75113749	      0.00000000	      0.00000000	      9.76930506	     -8.65004013	     -5.31363201	     54.91514667	     46.89340966	      0.00000000	      0.00000000
      2.24614286	     -4.38407643	     -7.04216365	      1.39172826	      0.93937162	      0.92588045	      0.50667862	     15.86953259	      3.51627858	    -18.21748463	     16.32584660	     16.32584660	      6.04212310	     -2.20144828	     -5.81037201	     23.87158351	    -13.72191672	      0.63031616	     65.69996431	     65.69996431	      4.46815678	    -17.78463624	      5.93327928	     -8.28733591	      8.11250054	      3.91577635	     10.26051144	    -13.67823832	     -4.41104502	     36.48503210	     45.70629698	      0.00000000	      0.00000000	      8.62059134	     -8.53136337	     -5.03910428	     53.22729323	     46.83682190	      0.00000000	      0.00000000
      2.25800000	     -4.35624499	     -7.06440657	      1.53087094	      0.93809122	      0.92645446	      0.50811405	     15.26711854	      3.67948869	    -18.33494581	     16.03089388	     16.03089388	      6.30239484	     -1.99019912	     -5.83707459	     25.66390355	    -13.82622805	      1.10804528	     67.10719242	     67.10719242	      3.99460354	    -17.90706775	      6.26560765	     -8.47335409	      7.93350287	      4.13925437	     12.34687480	    -14.02186339	     -4.43671238	     37.69643243	     45.67563657	      0.00000000	      0.00000000	      7.68020972	     -8.17960234	     -4.82237621	     51.75598300	     46.78982909	      0.00000000	      0.00000000
      2.26985714	     -4.38030380	     -7.07063692	      1.79965262	      0.93670764	      0.92702254	      0.50919871	     14.62432954	      3.79247885	    -18.65769037	     15.54945223	     15.54945223	      6.57838066	     -1.54027290	     -5.78250298	     27.59184518	    -13.70799790	      1.80338448	     68.22849532	     68.22849532	      4.86384540	    -17.70172367	      9.39411813	     -8.49175611	      7.81167444	      4.67289279	     12.93507700	    -14.80403427	     -3.42975319	     41.66823993	     45.48463907	      0.00000000	      0.00000000	      8.87925033	     -7.42988377	     -4.80406161	     44.68026843	     46.70249229	      0.00000000	      0.00000000
      2.28171429	     -4.41633847	     -7.02570030	      1.98600670	      0.93530452	      0.92766482	      0.51031180	     13.98690245	      3.89613111	    -18.80341331	     15.03454090	     15.03454090	      6.78150401	     -1.25678059	     -5.74914233	     29.21608641	    -13.66346443	      2.11888468	     68.49441025	     68.49441025	      4.87445745	    -17.82286126	      9.47352353	     -8.58071182	      7.58745496	      4.34347433	     15.16886688	    -14.76535796	     -3.53784498	     43.17385186	     45.45019058	      0.00000000	      0.00000000	      7.76578986	     -7.45914537	     -4.60829049	     42.72762060	     46.64725804	      0.00000000	      0.00000000
      2.29357143	     -4.40610849	     -6.97898393	      2.23129107	      0.93393366	      0.92838359	      0.51127427	     13.28343686	      4.00525411	    -18.94448558	     14.48737617	     14.48737617	      6.96568798	     -1.05376061	     -5.69168698	     30.67372849	    -13.57979720	      2.39237326	     68.21079242	     68.21079242	      5.10032211	    -17.94998369	      9.67025458	     -8.68677987	      7.31614160	      4.06962867	     17.25632099	    -14.74248138	     -3.58499847	     44.82055794	     45.40640187	      0.00000000	      0.00000000	      6.91549723	     -7.42738168	     -4.43095047	     40.27606211	     46.59434736	      0.00000000	      0.00000000
      2.30542857	     -4.43224062	     -6.85926386	      2.40649006	      0.93249337	      0.92905225	      0.51190109	     12.62686251	      4.01672754	    -19.02068585	     13.95529498	     13.95529498	      7.15984549	     -0.85725726	     -5.70214379	     32.00220416	    -13.41084617	      2.46443922	     67.39988819	     67.39988819	      5.66998932	    -18.08440175	     10.42870608	     -8.78346740	      7.10330621	      4.63500823	     18.52464983	    -15.43641269	     -3.49282164	     47.47863021	     45.32451425	      0.00000000	      0.00000000	      7.41350795	     -6.91164904	     -4.30771920	     35.41099751	     46.53521000	      0.00000000	      0.00000000
      2.31728571	     -4.44133459	     -6.74910532	      2.65239388	      0.93101334	      0.92975155	      0.51240363	     11.93494815	      4.05554547	    -19.03805052	     13.37449107	     13.37449107	      7.34081220	     -0.79089025	     -5.61815281	     33.14907697	    -13.21020951	      2.51711456	     65.98264064	     65.98264064	      6.01083016	    -18.26541471	     10.66651228	     -8.93510779	      6.81237938	      4.32118968	     20.63547102	    -15.40165489	     -3.71127608	     49.19827306	     45.28644965	      0.00000000	      0.00000000	      6.28731813	     -6.94323030	     -4.19866100	     33.90503208	     46.49374129	      0.00000000	      0.00000000
